<?xml version="1.0" encoding="UTF-8" standalone="no"?>
<svg
   version="1.0"
   width="1078.000000pt"
   height="824.000000pt"
   viewBox="0 0 1078.000000 824.000000"
   preserveAspectRatio="xMidYMid meet"
   id="svg6"
   sodipodi:docname="logo.svg"
   inkscape:version="1.1 (c68e22c387, 2021-05-23)"
   xmlns:inkscape="http://www.inkscape.org/namespaces/inkscape"
   xmlns:sodipodi="http://sodipodi.sourceforge.net/DTD/sodipodi-0.dtd"
   xmlns="http://www.w3.org/2000/svg"
   xmlns:svg="http://www.w3.org/2000/svg">
  <defs
     id="defs10" />
  <sodipodi:namedview
     id="namedview8"
     pagecolor="#ffffff"
     bordercolor="#666666"
     borderopacity="1.0"
     inkscape:pageshadow="2"
     inkscape:pageopacity="0.0"
     inkscape:pagecheckerboard="0"
     inkscape:document-units="pt"
     showgrid="false"
     inkscape:zoom="0.73907767"
     inkscape:cx="722.52217"
     inkscape:cy="483.711"
     inkscape:window-width="1920"
     inkscape:window-height="1001"
     inkscape:window-x="1911"
     inkscape:window-y="-9"
     inkscape:window-maximized="1"
     inkscape:current-layer="svg6" />
  <g
     transform="translate(0.000000,824.000000) scale(0.100000,-0.100000)"
     fill="#000000"
     stroke="none"
     id="g4"
     style="fill:#014023;fill-opacity:1;stroke:#001800;stroke-opacity:1;stroke-width:37.5;stroke-miterlimit:4;stroke-dasharray:none">
    <path
       d="M4860 8234 c-8 -1 -106 -15 -217 -30 l-201 -27 -151 -98 -152 -99 -157 -25 c-86 -14 -165 -28 -175 -31 -9 -3 -47 -50 -82 -105 l-66 -99 -174 0 -174 0 -140 -51 -140 -51 -125 76 c-69 41 -127 72 -129 68 -2 -4 -12 -39 -21 -78 -16 -66 -25 -81 -108 -180 -50 -60 -122 -156 -161 -213 -69 -103 -69 -104 -63 -155 4 -28 10 -69 13 -92 l5 -41 -72 -44 -73 -44 -96 -181 c-113 -212 -134 -282 -151 -507 l-11 -148 47 -55 c38 -45 45 -57 33 -65 -8 -5 -74 -43 -146 -84 -146 -84 -142 -83 -202 -21 -19 20 -40 36 -45 36 -6 0 -51 -69 -101 -153 l-90 -152 -74 -15 -74 -16 -98 -102 c-82 -85 -109 -123 -158 -215 -91 -169 -73 -162 -169 -72 -46 43 -84 76 -85 74 -12 -16 -70 -170 -90 -241 -23 -79 -33 -96 -104 -182 -68 -82 -86 -97 -141 -121 -66 -29 -68 -29 -151 4 l-54 22 8 -103 7 -103 64 -86 64 -86 0 -93 c0 -90 -1 -95 -54 -214 -30 -66 -84 -196 -120 -287 -36 -91 -90 -213 -120 -271 l-56 -105 -8 -174 -8 -174 37 -100 c28 -74 46 -150 69 -290 32 -201 106 -533 122 -550 5 -5 44 -19 86 -30 l77 -20 0 -58 0 -59 -72 -30 c-40 -17 -73 -34 -73 -39 0 -4 46 -45 102 -90 57 -45 109 -87 116 -94 7 -6 29 -78 48 -160 20 -84 43 -160 55 -176 19 -27 25 -29 84 -29 l64 0 63 -82 63 -83 0 -124 0 -124 205 -115 204 -115 191 -23 c112 -14 310 -28 485 -35 l295 -12 137 -68 138 -69 209 0 210 0 98 59 98 59 365 0 365 -1 122 61 c120 60 121 62 128 101 16 96 -22 207 -140 411 -107 185 -108 188 -60 156 21 -15 98 -55 171 -91 102 -50 147 -79 194 -124 l61 -57 -3 -146 c-4 -189 -1 -195 128 -220 49 -10 99 -20 112 -23 14 -4 45 -40 88 -104 l65 -98 -75 -125 c-42 -69 -76 -132 -76 -140 0 -8 13 -27 30 -43 29 -28 31 -28 182 -33 125 -4 158 -8 183 -23 47 -29 158 -26 227 6 38 18 70 25 113 25 33 0 117 3 187 7 l126 6 -34 93 c-18 51 -61 147 -94 214 l-61 122 19 56 19 57 66 3 66 3 48 -60 48 -61 201 0 c110 0 290 3 398 7 l198 6 86 74 c57 47 96 73 112 73 13 0 83 7 156 16 l131 17 134 -99 c128 -94 137 -98 199 -106 153 -17 150 -18 388 98 174 86 241 113 339 139 l122 32 161 -23 c176 -25 160 -18 337 -136 39 -26 100 -58 135 -72 35 -13 70 -27 79 -31 13 -5 42 25 121 122 58 70 108 139 112 153 4 16 54 62 143 133 l138 107 100 -5 100 -6 75 123 76 123 124 6 c114 6 134 9 230 46 l105 41 0 88 c0 85 3 93 44 174 36 72 62 104 169 212 l125 127 -107 292 -108 291 16 42 16 42 -114 215 c-106 200 -119 220 -206 312 l-93 98 -6 97 c-7 93 -9 101 -64 203 -31 58 -57 109 -57 112 0 4 32 23 71 43 39 19 68 39 63 43 -5 4 -79 66 -164 136 -85 70 -159 132 -164 136 -5 4 21 87 58 187 36 98 66 185 66 193 0 7 -26 39 -57 71 l-57 57 27 93 c15 51 34 114 42 140 l14 48 -89 99 -89 100 38 213 39 213 -41 75 c-83 155 -68 143 -214 175 -90 20 -191 53 -343 113 l-215 84 -65 97 -65 96 -135 79 -135 79 -134 5 -133 5 -19 31 c-11 17 -38 67 -61 112 l-42 81 37 129 c20 71 37 133 37 137 0 4 -17 7 -39 7 -28 0 -40 5 -44 18 -3 9 -39 87 -81 172 l-76 154 -124 64 -123 63 -12 177 c-18 258 -9 233 -133 340 l-108 92 -357 55 c-197 31 -367 59 -378 63 -11 4 -90 45 -174 91 l-153 84 -378 -108 -377 -108 -269 162 -269 161 -105 -1 c-58 -1 -112 -3 -120 -5z m-674 -624 c15 -96 62 -243 129 -403 43 -103 53 -173 35 -248 -44 -188 -219 -368 -310 -319 -32 17 -43 70 -48 245 -8 286 -7 305 38 435 69 196 89 271 107 395 l18 120 8 -65 c4 -36 14 -108 23 -160z m1074 -262 c212 -452 264 -1159 139 -1908 -28 -168 -81 -383 -130 -532 -42 -124 -117 -298 -128 -298 -4 0 -3 44 2 98 10 118 2 289 -19 391 -21 102 -71 202 -139 281 -78 88 -85 108 -85 239 0 241 37 368 203 693 154 302 187 414 187 628 0 146 -40 376 -85 493 -4 9 -4 17 0 17 3 0 28 -46 55 -102z m1590 -478 c129 -257 193 -447 219 -649 19 -143 14 -219 -34 -566 -8 -60 -15 -163 -15 -228 0 -96 -5 -135 -25 -208 -32 -111 -92 -253 -128 -301 -120 -157 -251 31 -343 492 -22 113 -24 133 -14 215 15 130 43 203 109 293 103 140 121 169 151 260 36 108 54 287 45 442 -8 134 -24 307 -31 343 -3 15 -3 27 0 27 3 0 33 -54 66 -120z m-3500 -585 c35 -289 75 -380 196 -451 46 -27 46 -26 68 -125 37 -162 30 -332 -20 -507 -38 -135 -186 -429 -197 -392 -18 60 -102 305 -136 395 -152 408 -153 740 -4 1239 24 82 47 155 51 160 4 6 10 -27 15 -74 4 -47 16 -157 27 -245z m5187 -688 c46 -56 113 -136 149 -177 121 -140 152 -248 119 -411 -21 -104 -69 -236 -146 -399 -71 -149 -250 -480 -260 -480 -4 0 -10 22 -14 48 -3 26 -10 54 -14 61 -5 8 16 59 55 135 119 230 161 404 151 620 -8 175 -44 333 -152 665 -32 96 -59 182 -62 190 -3 9 16 -21 43 -67 26 -46 85 -129 131 -185z m-6387 -231 c-157 -435 -190 -556 -210 -776 -14 -153 0 -337 41 -531 l20 -95 -25 -53 c-13 -29 -32 -81 -42 -117 -10 -35 -22 -64 -25 -64 -10 0 -153 286 -182 365 -74 198 -91 399 -48 570 26 102 102 270 180 395 87 139 384 590 388 586 2 -1 -42 -127 -97 -280z m5261 -222 c133 -285 228 -628 276 -999 24 -192 24 -662 -1 -850 -49 -379 -144 -697 -301 -1012 -136 -272 -298 -494 -524 -718 -122 -120 -137 -124 -125 -35 10 66 36 130 114 275 194 360 230 448 230 561 0 125 -66 199 -220 249 -30 10 -58 23 -62 29 -14 20 -8 205 8 283 21 105 67 226 164 438 45 99 104 234 131 299 177 428 256 876 247 1398 -2 111 1 194 6 191 5 -3 30 -52 57 -109z m-4518 -336 c10 -231 45 -462 107 -703 108 -422 259 -743 560 -1195 157 -235 143 -202 180 -420 50 -285 27 -450 -96 -697 -68 -137 -84 -154 -84 -92 0 110 -64 262 -224 529 -296 495 -420 899 -477 1555 -16 191 -16 694 0 953 8 116 17 212 21 212 4 0 10 -64 13 -142z m2970 95 c-2 -27 -13 -124 -25 -218 -24 -191 -27 -340 -14 -655 10 -246 2 -312 -58 -436 -86 -179 -308 -374 -427 -374 -50 0 -95 38 -110 93 -14 53 -1 135 41 267 17 52 51 185 75 295 61 268 66 281 158 425 44 69 105 166 135 215 60 98 212 401 212 422 0 7 4 13 9 13 5 0 7 -21 4 -47z m-1808 -171 c42 -21 134 -119 173 -185 19 -31 45 -97 59 -148 14 -51 49 -147 77 -213 82 -189 90 -226 90 -406 0 -115 -4 -176 -18 -235 -32 -137 -92 -285 -116 -285 -12 0 -17 20 -40 170 -26 169 -42 236 -76 302 -44 88 -72 117 -189 193 -79 51 -122 86 -143 117 -92 134 -105 365 -32 565 24 66 70 130 104 143 25 11 70 3 111 -18z m5230 -392 c74 -295 105 -469 112 -630 7 -172 -10 -268 -71 -395 -45 -93 -76 -138 -310 -446 -156 -205 -271 -378 -383 -573 -41 -72 -77 -133 -80 -136 -13 -13 14 76 62 204 30 78 100 233 158 346 269 530 392 1010 429 1674 8 147 15 211 20 195 5 -13 34 -121 63 -239z m-7986 -60 c35 -472 167 -988 404 -1580 72 -182 238 -561 289 -665 36 -73 32 -68 -71 64 -44 57 -154 190 -244 295 -363 425 -490 609 -605 874 -54 126 -54 129 -16 392 31 217 65 373 111 504 32 93 113 280 118 274 2 -2 8 -73 14 -158z m6997 -587 c-3 -27 -16 -165 -27 -308 -19 -224 -22 -341 -23 -835 l-1 -575 -29 -85 c-28 -87 -112 -262 -162 -341 -42 -68 -142 -168 -214 -214 -71 -46 -126 -69 -330 -140 -74 -26 -195 -76 -269 -111 -74 -35 -137 -64 -140 -64 -13 0 8 145 28 204 39 109 101 209 292 462 104 138 228 314 275 390 197 320 357 703 477 1144 46 169 117 474 117 503 0 10 3 17 6 17 4 0 4 -21 0 -47z m-2051 -135 c17 -92 35 -325 35 -471 0 -207 -36 -420 -101 -589 -18 -46 -80 -182 -139 -303 -59 -121 -122 -265 -140 -320 -44 -134 -66 -176 -154 -292 -124 -164 -230 -253 -299 -253 -41 0 -91 54 -113 121 -28 89 -31 356 -5 549 29 219 76 346 164 446 22 24 91 83 155 131 65 48 136 105 159 126 147 136 269 403 352 771 46 205 60 218 86 84z m-4024 -283 c80 -476 257 -918 582 -1455 278 -458 335 -559 377 -673 47 -128 61 -252 39 -345 -7 -26 -13 -48 -14 -50 -1 -1 -29 24 -63 56 -78 78 -131 102 -342 157 -96 25 -203 59 -237 76 -112 54 -190 174 -239 366 -65 256 -83 507 -124 1703 -10 297 -11 392 -3 320 2 -19 13 -89 24 -155z m2664 -122 c74 -400 76 -647 9 -893 -35 -128 -192 -509 -282 -685 l-15 -29 -32 37 c-91 105 -165 433 -151 662 7 116 38 257 67 304 10 17 35 39 54 47 61 25 116 84 151 159 34 74 60 176 94 368 11 66 27 135 36 155 13 32 16 34 30 21 8 -9 25 -72 39 -146z m1460 -1743 c10 -56 14 -113 10 -138 -10 -67 -78 -192 -144 -264 -121 -132 -188 -123 -184 24 2 79 38 177 107 287 74 118 100 183 147 370 l34 134 6 -159 c4 -88 14 -202 24 -254z"
       id="path2"
       style="fill:#014023;fill-opacity:1;stroke:#001800;stroke-opacity:1;stroke-width:37.5;stroke-miterlimit:4;stroke-dasharray:none" />
  </g>
</svg>
